# xmcd CD database file
#
# Track frame offsets:
#	150
#	18600
#	39537
#	59037
#	79875
#	96612
#	111537
#	126975
#	146337
#	163887
#	182262
#	198762
#
# Disc length: 2847 seconds
#
# Revision: 3
# Processed by: cddbd v1.5.2PL0 Copyright (c) Steve Scherf et al.
# Submitted via: CDex 1.51
#
DISCID=b00b1d0c
DTITLE=Taj Mahal - Blue Light Boogie
DYEAR=1999
DGENRE=Blues
TTITLE0=River Of Love
TTITLE1=Honky Tonk Women
TTITLE2=Don't Call Us
TTITLE3=Take A Giant Step
TTITLE4=Down Home Girl
TTITLE5=Feets Don't Fail Me Now
TTITLE6=Dark Angel
TTITLE7=Big Legged Mommas Are Back In Style
TTITLE8=John The Revelator
TTITLE9=Blue Light Boogie
TTITLE10=She Caught The Katy
TTITLE11=Mercedes Benz
EXTD=YEAR: 1999
EXTT0=
EXTT1=
EXTT2=
EXTT3=
EXTT4=
EXTT5=
EXTT6=
EXTT7=
EXTT8=
EXTT9=
EXTT10=
EXTT11=
PLAYORDER=
